<?xml version="1.0" encoding="utf-8"?>
<svg viewBox="0 0 500 500" xmlns="http://www.w3.org/2000/svg">
  <path d="M 116.336 261.437 L 111.508 261.437 C 109.577 281.134 106.874 305.08 72.886 305.08 L 57.244 305.08 C 48.168 305.08 47.782 303.728 47.782 297.356 L 47.782 194.814 C 47.782 188.249 47.782 185.545 65.934 185.545 L 72.307 185.545 L 72.307 179.752 C 65.355 180.331 47.975 180.331 40.058 180.331 C 32.526 180.331 17.464 180.331 10.898 179.752 L 10.898 185.545 L 15.34 185.545 C 30.209 185.545 30.595 187.669 30.595 194.621 L 30.595 296.004 C 30.595 302.956 30.209 305.08 15.34 305.08 L 10.898 305.08 L 10.898 311.066 L 111.122 311.066 L 116.336 261.437 Z" style=""/>
  <path d="M 113.053 179.559 C 112.281 177.241 111.894 176.469 109.384 176.469 C 106.874 176.469 106.294 177.241 105.522 179.559 L 74.431 258.347 C 73.079 261.63 70.762 267.617 58.789 267.617 L 58.789 272.444 L 88.721 272.444 L 88.721 267.617 C 82.735 267.617 79.066 264.913 79.066 261.051 C 79.066 260.085 79.259 259.699 79.645 258.347 C 79.645 258.347 86.211 241.74 86.211 241.74 L 124.447 241.74 L 132.171 261.437 C 132.557 262.21 132.943 263.175 132.943 263.754 C 132.943 267.617 125.605 267.617 121.936 267.617 L 121.936 272.444 L 159.979 272.444 L 159.979 267.617 L 157.275 267.617 C 148.199 267.617 147.233 266.265 145.882 262.403 C 145.882 262.403 113.053 179.559 113.053 179.559 Z M 105.329 193.269 L 122.515 236.912 L 88.142 236.912 L 105.329 193.269 Z" style=""/>
  <path d="M 267.734 180.91 L 150.13 180.91 C 150.13 180.91 146.654 224.167 146.654 224.167 L 151.289 224.167 C 153.992 193.076 156.889 186.704 186.049 186.704 C 189.525 186.704 194.545 186.704 196.476 187.09 C 200.532 187.862 200.532 189.987 200.532 194.428 L 200.532 295.811 C 200.532 302.376 200.532 305.08 180.255 305.08 L 172.531 305.08 L 172.531 311.066 C 180.448 310.487 199.952 310.487 208.835 310.487 C 217.719 310.487 237.609 310.487 245.526 311.066 L 245.526 305.08 L 237.802 305.08 C 217.525 305.08 217.525 302.376 217.525 295.811 L 217.525 194.428 C 217.525 190.566 217.525 187.862 221.001 187.09 C 223.126 186.704 228.34 186.704 232.009 186.704 C 260.975 186.704 263.872 193.076 266.575 224.167 L 271.403 224.167 C 271.403 224.167 267.734 180.91 267.734 180.91 Z" style=""/>
  <path d="M 371.241 304.887 L 366.413 304.887 C 361.585 334.433 357.144 348.53 324.122 348.53 L 298.631 348.53 C 289.555 348.53 289.169 347.178 289.169 340.805 L 289.169 289.438 L 306.356 289.438 C 325.087 289.438 327.212 295.618 327.212 312.032 L 332.039 312.032 L 332.039 261.051 L 327.212 261.051 C 327.212 277.465 325.087 283.452 306.356 283.452 L 289.169 283.452 L 289.169 237.298 C 289.169 230.926 289.555 229.574 298.631 229.574 L 323.35 229.574 C 352.895 229.574 357.916 240.195 361.006 267.037 L 365.834 267.037 L 360.427 223.781 L 252.285 223.781 L 252.285 229.574 L 256.727 229.574 C 271.596 229.574 271.982 231.698 271.982 238.65 L 271.982 339.453 C 271.982 346.405 271.596 348.53 256.727 348.53 L 252.285 348.53 L 252.285 354.516 L 363.13 354.516 L 371.241 304.887 Z" style=""/>
  <path d="M 429.367 236.719 L 455.823 198.097 C 459.878 191.918 466.444 185.738 483.631 185.545 L 483.631 179.752 L 437.67 179.752 L 437.67 185.545 C 445.395 185.738 449.643 189.987 449.643 194.428 C 449.643 196.359 449.257 196.745 447.905 198.87 C 447.905 198.87 425.891 231.312 425.891 231.312 L 401.173 194.235 C 400.786 193.656 399.821 192.111 399.821 191.338 C 399.821 189.021 404.069 185.738 412.18 185.545 L 412.18 179.752 C 405.614 180.331 391.517 180.331 384.179 180.331 C 378.193 180.331 366.22 180.138 359.075 179.752 L 359.075 185.545 L 362.744 185.545 C 373.365 185.545 377.034 186.897 380.703 192.304 C 380.703 192.304 416.042 245.795 416.042 245.795 L 384.565 292.335 C 381.862 296.197 376.068 305.08 356.757 305.08 L 356.757 311.066 L 402.718 311.066 L 402.718 305.08 C 393.835 304.887 390.552 299.673 390.552 296.197 C 390.552 294.459 391.131 293.686 392.483 291.562 L 419.711 251.202 L 450.223 297.162 C 450.609 297.935 451.188 298.707 451.188 299.287 C 451.188 301.604 446.94 304.887 438.636 305.08 L 438.636 311.066 C 445.395 310.487 459.492 310.487 466.637 310.487 C 474.747 310.487 483.631 310.68 491.741 311.066 L 491.741 305.08 L 488.072 305.08 C 478.03 305.08 473.975 304.114 469.92 298.128 C 469.92 298.128 429.367 236.719 429.367 236.719 Z" style=""/>
</svg>