<?xml version="1.0" encoding="UTF-8" standalone="no"?>
<!-- Created with Inkscape (http://www.inkscape.org/) by Marsupilami -->
<svg
   xmlns:svg="http://www.w3.org/2000/svg"
   xmlns="http://www.w3.org/2000/svg"
   version="1.0"
   width="1024"
   height="536"
   viewBox="0 0 233.84375 122.40375"
   id="svg2403"
   xml:space="preserve"><defs
     id="defs2406" /><g
     transform="matrix(1.25,0,0,-1.25,-255.1175,587.3775)"
     id="g2412"><g
       transform="scale(0.1,0.1)"
       id="g2414"><path
         d="M 3236.52,4588.85 C 3219.52,4588.85 3205.73,4575.06 3205.73,4558.05 C 3205.73,4547.33 3210.97,4537.92 3219.28,4532.41 L 3219.28,4532.41 L 3114.82,4308.24 L 3136.64,4606.75 L 3136.64,4606.75 C 3152.44,4608.06 3164.84,4621.34 3164.84,4637.48 C 3164.84,4654.48 3151.05,4668.27 3134.04,4668.27 C 3117.03,4668.27 3103.24,4654.48 3103.24,4637.48 C 3103.24,4624.09 3111.79,4612.91 3123.72,4608.67 L 3123.72,4608.67 L 3052.05,4317.21 L 3016.6,4638.73 L 3016.6,4638.73 C 3029.73,4642.25 3039.29,4653.98 3039.29,4668.22 C 3039.29,4685.23 3025.51,4699.02 3008.5,4699.02 C 2991.48,4699.02 2977.7,4685.23 2977.7,4668.22 C 2977.7,4652.84 2989.04,4640.44 3003.77,4638.14 L 3003.77,4638.14 L 2975.19,4324.89 L 2892.14,4607.76 L 2892.14,4607.76 C 2901.95,4612.91 2908.62,4623.06 2908.62,4634.91 C 2908.62,4651.92 2894.84,4665.71 2877.83,4665.71 C 2860.82,4665.71 2847.03,4651.92 2847.03,4634.91 C 2847.03,4617.9 2860.82,4604.11 2877.83,4604.11 C 2878.26,4604.11 2878.75,4604.16 2879.18,4604.18 L 2879.18,4604.18 L 2914.98,4308.24 L 2794.34,4523.55 L 2794.34,4523.55 C 2801.52,4529.19 2806.14,4537.96 2806.14,4547.8 C 2806.14,4564.81 2792.36,4578.6 2775.34,4578.6 C 2758.33,4578.6 2744.54,4564.81 2744.54,4547.8 C 2744.54,4530.79 2758.33,4517 2775.34,4517 C 2777.59,4517 2779.78,4517.25 2781.89,4517.7 L 2781.89,4517.7 L 2882.95,4214.73 L 2882.95,4214.73 C 2906.01,4144.27 3110.98,4142.98 3141.73,4214.73 L 3141.73,4214.73 L 3232.99,4527.63 L 3232.99,4527.63 C 3234.25,4527.47 3235.21,4527.25 3236.52,4527.25 C 3253.54,4527.25 3267.32,4541.04 3267.32,4558.05 C 3267.32,4575.06 3253.54,4588.85 3236.52,4588.85 L 3236.52,4588.85 z M 3009.78,4182.33 C 2957.55,4182.33 2915.21,4198.07 2915.21,4217.48 C 2915.21,4236.9 2957.55,4246.02 3009.78,4246.02 C 3062.01,4246.02 3098.82,4236.9 3098.82,4217.48 C 3098.82,4198.07 3062.01,4182.33 3009.78,4182.33 L 3009.78,4182.33"
         style="fill:#b4975a;fill-opacity:1;fill-rule:evenodd;stroke:none"
         id="path2416" /><path
         d="M 71.03125,0 C 57.72625,0 49.42125,10.25375 49.375,19.90625 C 49.315001,32.401251 57.61,40.28125 70.625,40.28125 C 84.448748,40.281251 92.46875,32.5275 92.46875,19.28125 C 92.468751,9.4637504 83.81375,0 71.03125,0 z M 0,1.09375 L 0,5.46875 L 3.78125,5.46875 C 6.095,5.4687502 6.90625,6.0075 6.90625,8.03125 L 6.90625,32.84375 C 6.90625,34.810001 6.095,35.5625 3.78125,35.5625 L 0,35.5625 L 0,39.65625 L 21.8125,39.65625 L 21.8125,35.5625 L 18.8125,35.5625 C 16.5,35.562499 15.6875,34.81 15.6875,32.84375 L 15.6875,21.78125 L 19.5625,21.78125 C 23.727499,21.78125 26.76875,24.13625 27,28.53125 L 27.375,33.59375 C 27.607499,38.22125 30.72375,40.71875 36.21875,40.71875 C 42.061251,40.71875 43.4375,37.86 43.4375,31.84375 L 43.4375,28.625 L 40.1875,28.625 L 40.1875,30.59375 C 40.187502,32.965 38.81125,34.1875 37.65625,34.1875 C 35.803749,34.187501 35.71,31.92375 35.59375,30.59375 L 35.59375,29 C 35.593749,23.714999 33.1675,21.6325 30.125,20.03125 C 35.79375,18.70125 39.5625,15.30875 39.5625,10.625 C 39.562501,4.5499999 35.4025,1.09375 28,1.09375 L 0,1.09375 z M 139.65625,1.09375 L 139.65625,5.46875 L 143.46875,5.46875 C 145.78249,5.4687498 146.59375,5.9775 146.59375,8 L 146.59375,32.90625 C 146.59375,34.87375 145.7825,35.625 143.46875,35.625 L 139.65625,35.625 L 139.65625,39.65625 L 178.625,39.65625 L 178.625,23.125 L 174.9375,23.125 C 174.9375,31.281251 171.71875,35.5625 166.28125,35.5625 L 155.34375,35.5625 L 155.34375,22.3125 L 157.5,22.3125 C 161.02875,22.312499 163.03125,23.86 163.03125,26.75 L 163.03125,29.0625 L 167.25,29.0625 L 167.25,10.6875 L 163.03125,10.6875 L 163.03125,12.71875 C 163.03125,15.55875 160.91375,17.28125 157.5,17.28125 L 155.34375,17.28125 L 155.34375,5.46875 L 165.53125,5.46875 C 172.99374,5.4687498 174.53125,9.7675 174.9375,16.1875 L 178.625,16.1875 L 178.625,1.09375 L 139.65625,1.09375 z M 188.34375,1.125 L 188.34375,5.46875 C 193.94875,5.6287498 195.35,6.2725 197.375,8.875 L 206.4375,19.875 L 194.09375,32.84375 C 191.895,35.3325 191.7,35.5625 188.34375,35.5625 L 188.34375,39.71875 L 207.875,39.71875 L 207.875,35.5625 L 203.1875,35.5625 C 201.79874,35.562501 201.53125,34.56375 201.53125,33.8125 C 201.53125,33.061251 202.50125,32.17625 202.90625,31.65625 L 209.78125,23.875 L 216.6875,32.0625 C 217.03375,32.525002 217.59375,33.0475 217.59375,33.625 C 217.59374,34.377499 216.955,35.5625 215.625,35.5625 L 211.75,35.5625 L 211.75,39.71875 L 233.84375,39.71875 L 233.84375,35.5625 C 230.35375,35.562501 230.06875,35.39 226.9375,31.5625 L 215.40625,17.96875 L 223.25,9.46875 C 226.14124,6.4025002 227.2675,5.46875 229.8125,5.46875 L 233.84375,5.46875 L 233.84375,1.125 L 214.28125,1.125 L 214.28125,5.46875 L 216.84375,5.46875 C 217.80501,5.6162498 218.43,6.6025 217.46875,7.5625 L 212.03125,13.78125 L 207.71875,8.5 C 206.75874,7.3787505 206.895,5.46875 208.65625,5.46875 L 210.65625,5.46875 L 210.65625,1.125 L 188.34375,1.125 z M 98.34375,1.1875 L 98.34375,5.46875 L 101.34375,5.46875 C 103.6575,5.4687498 104.46875,6.16375 104.46875,8.1875 L 104.46875,32.90625 C 104.46875,34.873749 103.6575,35.625 101.34375,35.625 L 98.34375,35.625 L 98.34375,39.75 L 134.84375,39.75 L 134.84375,22.8125 L 130.6875,22.8125 C 130.57125,29.462499 130.63,35.5625 122.53125,35.5625 L 113.28125,35.5625 L 113.28125,8.1875 C 113.28125,6.1637498 114.09375,5.46875 116.40625,5.46875 L 119.875,5.46875 L 119.875,1.1875 L 98.34375,1.1875 z M 71.09375,4.96875 C 77.919997,4.9687498 81.90625,10.0825 81.90625,20.03125 C 81.906251,29.74875 77.83375,35.71875 70.71875,35.71875 C 63.777501,35.718751 59.8125,29.515 59.8125,19.625 C 59.8125,9.9637493 63.97875,4.96875 71.09375,4.96875 z M 15.6875,5.4375 L 21.6875,5.4375 C 27.472499,5.4374999 29.5625,7.33375 29.5625,11.09375 C 29.5625,14.96875 27.29625,16.78125 22.4375,16.78125 L 15.6875,16.78125 L 15.6875,5.4375 z "
         transform="matrix(8,0,0,-8,2040.94,4045.54)"
         style="fill:#231f20;fill-opacity:1;fill-rule:evenodd;stroke:none"
         id="path2418" /></g></g></svg>
